<svg width="594" height="199" viewBox="0 0 594 199" fill="none" xmlns="http://www.w3.org/2000/svg">
<path d="M82.0397 2.63452V195.331H46.9177V36.6009H45.7817L0.435547 65.3924V33.4019L48.6218 2.63452H82.0397Z" fill="white"/>
<path d="M202.931 199C187.343 199 173.963 195.08 162.792 187.239C151.684 179.335 143.132 167.95 137.137 153.084C131.204 138.155 128.238 120.184 128.238 99.1707C128.301 78.1573 131.299 60.2802 137.231 45.5395C143.227 30.736 151.779 19.4452 162.887 11.6671C174.057 3.88905 187.406 0 202.931 0C218.457 0 231.805 3.88905 242.976 11.6671C254.147 19.4452 262.699 30.736 268.631 45.5395C274.627 60.343 277.625 78.22 277.625 99.1707C277.625 120.247 274.627 138.249 268.631 153.178C262.699 168.044 254.147 179.398 242.976 187.239C231.868 195.08 218.52 199 202.931 199ZM202.931 169.55C215.049 169.55 224.61 163.622 231.616 151.767C238.684 139.849 242.219 122.317 242.219 99.1707C242.219 83.8654 240.609 71.0065 237.391 60.5939C234.172 50.1812 229.628 42.3404 223.758 37.0714C217.889 31.7396 210.947 29.0738 202.931 29.0738C190.877 29.0738 181.347 35.0328 174.341 46.9508C167.336 58.8061 163.802 76.2128 163.739 99.1707C163.675 114.539 165.222 127.46 168.377 137.936C171.596 148.411 176.14 156.315 182.01 161.646C187.879 166.915 194.853 169.55 202.931 169.55Z" fill="white"/>
<path d="M380.742 199C365.153 199 351.774 195.08 340.603 187.239C329.495 179.335 320.943 167.95 314.948 153.084C309.015 138.155 306.049 120.184 306.049 99.1707C306.112 78.1573 309.11 60.2802 315.042 45.5395C321.038 30.736 329.59 19.4452 340.697 11.6671C351.868 3.88905 365.217 0 380.742 0C396.268 0 409.616 3.88905 420.787 11.6671C431.958 19.4452 440.51 30.736 446.442 45.5395C452.438 60.343 455.436 78.22 455.436 99.1707C455.436 120.247 452.438 138.249 446.442 153.178C440.51 168.044 431.958 179.398 420.787 187.239C409.679 195.08 396.331 199 380.742 199ZM380.742 169.55C392.86 169.55 402.421 163.622 409.427 151.767C416.495 139.849 420.03 122.317 420.03 99.1707C420.03 83.8654 418.42 71.0065 415.201 60.5939C411.983 50.1812 407.439 42.3404 401.569 37.0714C395.7 31.7396 388.757 29.0738 380.742 29.0738C368.688 29.0738 359.158 35.0328 352.152 46.9508C345.147 58.8061 341.613 76.2128 341.549 99.1707C341.486 114.539 343.033 127.46 346.188 137.936C349.407 148.411 353.951 156.315 359.82 161.646C365.69 166.915 372.664 169.55 380.742 169.55Z" fill="white"/>
<path d="M476.914 53.7618L514.358 115.696L551.803 53.7618H571.376L524.665 126.381L571.376 199H551.803L514.358 139.051L476.914 199H457.436L503.579 126.381L457.436 53.7618H476.914Z" fill="white"/>
<path d="M499.103 53.7618L536.547 115.696L573.991 53.7618H593.564L546.853 126.381L593.564 199H573.991L536.547 139.051L499.103 199H479.624L525.767 126.381L479.624 53.7618H499.103Z" fill="white"/>
</svg>
