<svg width="19" height="19" viewBox="0 0 19 19" fill="none" xmlns="http://www.w3.org/2000/svg">
<path d="M17.0446 16.2054L14.1471 13.3079C15.1961 12.065 15.8334 10.4611 15.8334 8.70834C15.8334 4.77375 12.643 1.58334 8.70837 1.58334C4.77379 1.58334 1.58337 4.77375 1.58337 8.70834C1.58337 12.6429 4.77379 15.8333 8.70837 15.8333C10.4619 15.8333 12.065 15.1968 13.3064 14.1471L16.2039 17.0446C16.3202 17.1602 16.473 17.2188 16.6235 17.2188C16.7739 17.2188 16.9282 17.161 17.043 17.0446C17.2766 16.8126 17.2766 16.4374 17.0446 16.2054ZM2.77087 8.70834C2.77087 5.43479 5.43483 2.77084 8.70837 2.77084C11.9819 2.77084 14.6459 5.43479 14.6459 8.70834C14.6459 11.9819 11.9819 14.6458 8.70837 14.6458C5.43483 14.6458 2.77087 11.9819 2.77087 8.70834Z" fill="#737373"/>
</svg>
